<?xml version="1.0" encoding="UTF-8" standalone="no"?>
<!DOCTYPE svg PUBLIC "-//W3C//DTD SVG 1.1//EN" "http://www.w3.org/Graphics/SVG/1.1/DTD/svg11.dtd">
<svg width="100%" height="100%" viewBox="0 0 617 316" version="1.1" xmlns="http://www.w3.org/2000/svg" xmlns:xlink="http://www.w3.org/1999/xlink" xml:space="preserve" xmlns:serif="http://www.serif.com/" style="fill-rule:evenodd;clip-rule:evenodd;stroke-linejoin:round;stroke-miterlimit:2;">
    <g transform="matrix(1,0,0,1,-783.381,-223.986)">
        <g transform="matrix(4.16667,0,0,4.16667,0,0)">
            <g transform="matrix(1,0,0,1,257.787,55.0644)">
                <path d="M0,35.779C5.501,35.106 10.527,32.154 13.443,27.885C15.839,24.377 16.553,20.367 15.509,16.29C15.327,15.577 15.042,14.771 14.706,14.019C14.047,12.534 13.108,11.264 12.199,10.036C11.896,9.626 11.588,9.21 11.289,8.784C11.502,8.911 11.711,9.051 11.915,9.204L12.56,9.687L12.677,8.89C12.936,7.131 12.903,5.368 12.58,3.648C12.269,1.991 11.688,0.928 10.805,0.398C9.798,-0.206 8.484,-0.022 7.559,0.239C5.682,0.768 3.949,1.911 2.678,3.458L2.337,3.874C0.488,3.263 -1.348,3.029 -3.121,3.176C-6.145,3.375 -9.118,4.134 -11.961,5.432C-13.037,5.933 -14.115,6.513 -15.158,7.074C-15.191,7.092 -15.224,7.109 -15.257,7.127C-15.031,6.915 -14.791,6.708 -14.538,6.506L-14.037,6.106L-14.562,5.738C-15.564,5.036 -16.652,4.503 -17.795,4.155C-19.093,3.76 -20.164,3.749 -20.977,4.121C-21.959,4.571 -22.544,5.552 -22.862,6.296C-23.522,7.84 -23.679,9.72 -23.316,11.731C-23.127,12.776 -22.873,13.692 -22.493,14.704L-22.125,15.681L-21.623,14.765C-21.566,14.66 -21.508,14.556 -21.447,14.454C-21.301,14.216 -21.151,13.994 -20.996,13.788C-20.997,13.794 -20.999,13.8 -21,13.806C-21.065,14.075 -21.128,14.335 -21.183,14.574L-21.274,14.982C-21.583,16.364 -21.902,17.794 -21.965,19.259C-22.013,20.1 -21.935,20.98 -21.861,21.661C-21.274,26.221 -18.297,30.482 -13.903,33.058C-10.702,34.98 -6.932,35.985 -3.048,35.985C-2.037,35.985 -1.018,35.917 0,35.779" style="fill:white;fill-rule:nonzero;"/>
            </g>
            <g transform="matrix(1,0,0,1,232.368,92.6848)">
                <path d="M0,-6.03C-1.573,-6.587 -2.76,-6.554 -3.628,-5.929L-3.885,-5.744L-3.816,-5.435C-3.614,-4.53 -2.862,-3.772 -1.756,-3.358C-1.263,-3.167 -0.727,-3.027 -0.208,-2.891C0.538,-2.697 1.308,-2.496 1.95,-2.142L1.965,-2.134C3.045,-1.587 3.931,-0.632 4.461,0.557L5.361,0.232C5.276,-0.071 5.173,-0.384 5.046,-0.722C4.083,-3.335 2.291,-5.22 0,-6.03" style="fill:rgb(166,124,83);fill-rule:nonzero;"/>
            </g>
            <g transform="matrix(1,0,0,1,233.123,94.653)">
                <path d="M0,-3.809C-0.271,-3.905 -0.556,-3.996 -0.831,-4.085C-2.173,-4.516 -3.561,-4.961 -4.273,-6.185C-4.375,-6.362 -4.456,-6.552 -4.513,-6.75L-4.774,-7.661L-5.353,-6.911C-7.047,-4.721 -7.14,-1.553 -5.575,0.624C-4.231,2.591 -1.876,3.852 0.44,3.852L0.514,3.852C1.817,3.848 3.037,3.358 3.861,2.507L3.99,2.374L3.996,2.19C4.088,-0.517 2.442,-2.984 0,-3.809" style="fill:rgb(140,99,58);fill-rule:nonzero;"/>
            </g>
            <g transform="matrix(1,0,0,1,245.023,96.0281)">
                <path d="M0,3.288C0.249,3.206 0.491,3.135 0.712,2.991C1.218,2.662 1.722,2.284 2.327,2.165C2.434,2.144 2.542,2.166 2.624,2.225C3.596,1.957 4.649,1.985 5.58,2.36L5.599,2.367C6.385,2.646 7.103,3.087 7.864,3.555C8.697,4.067 9.559,4.597 10.519,4.892C10.962,5.025 11.421,5.09 11.884,5.09C13.032,5.09 14.198,4.688 15.178,3.926L15.405,3.75L15.356,3.466C15.226,2.719 14.933,1.987 14.514,1.359C13.995,0.534 13.323,-0.063 12.625,-0.321C9.587,-1.473 7.002,-1.802 4.723,-1.328C3.554,-1.088 1.41,-0.427 0.185,1.297C-0.225,1.869 -0.442,2.531 -0.459,3.265L-0.465,3.482C-0.318,3.404 -0.163,3.342 0,3.288" style="fill:rgb(166,124,83);fill-rule:nonzero;"/>
            </g>
            <g transform="matrix(1,0,0,1,259.62,103.607)">
                <path d="M0,-3.012C-0.841,-2.306 -1.957,-1.899 -3.071,-1.896C-3.101,-1.896 -3.13,-1.895 -3.16,-1.895C-4.658,-1.895 -5.899,-2.697 -7.212,-3.544C-7.849,-3.955 -8.508,-4.38 -9.191,-4.699C-10.022,-5.093 -10.94,-5.22 -11.838,-5.106C-11.831,-4.951 -11.93,-4.784 -12.088,-4.753C-12.634,-4.645 -13.359,-4.71 -13.815,-4.413C-14.051,-4.259 -14.038,-3.751 -14.304,-3.665C-14.513,-3.598 -14.741,-3.534 -14.914,-3.393C-14.964,-3.351 -15.021,-3.322 -15.081,-3.307L-15.088,-3.002L-14.932,-3.179C-14.776,-2.513 -14.476,-1.82 -14.061,-1.175C-13.024,0.46 -11.43,1.62 -9.686,2.008C-9.056,2.151 -8.412,2.208 -7.783,2.208C-6.44,2.208 -5.16,1.95 -4.2,1.72C-1.913,1.16 -0.437,0.221 0.311,-1.149C0.549,-1.582 0.708,-2.061 0.783,-2.575L0.967,-3.824L0,-3.012Z" style="fill:rgb(140,99,58);fill-rule:nonzero;"/>
            </g>
            <g transform="matrix(1,0,0,1,280.334,100.567)">
                <path d="M0,-9.833C-0.221,-9.802 -0.431,-9.792 -0.653,-9.798C-0.86,-9.804 -1.014,-9.817 -1.188,-9.749C-1.306,-9.703 -1.437,-9.756 -1.523,-9.846C-1.99,-9.517 -2.465,-8.951 -2.898,-8.022C-3.188,-7.432 -3.536,-6.753 -3.926,-6.191C-4.768,-4.987 -6.321,-2.387 -8.654,-1.753C-9.166,-1.613 -9.905,-1.72 -10.437,-1.793C-10.469,-1.656 -10.586,-1.888 -10.768,-1.888C-10.841,-1.888 -10.901,-1.908 -10.949,-1.939C-10.99,-1.923 -11.036,-1.913 -11.09,-1.915C-11.562,-1.929 -11.936,-2.183 -12.374,-2.313C-12.497,-2.35 -12.619,-2.392 -12.741,-2.438L-12.419,-1.891C-12.012,-1.202 -11.379,-0.688 -10.592,-0.406C-9.632,-0.048 -8.588,0.074 -7.61,0.074C-6.802,0.074 -6.038,-0.01 -5.404,-0.112C-2.586,-0.59 -0.214,-2.299 0.786,-4.573C1.558,-6.33 1.426,-8.408 0.458,-9.907C0.306,-9.88 0.153,-9.854 0,-9.833" style="fill:rgb(140,99,58);fill-rule:nonzero;"/>
            </g>
            <g transform="matrix(1,0,0,1,269.244,89.0323)">
                <path d="M0,8.934C0.072,8.936 0.131,8.958 0.179,8.99C0.22,8.971 0.267,8.961 0.322,8.961C0.544,8.961 0.654,9.134 0.653,9.306C2.209,9.254 3.797,8.353 5.395,6.605C6.063,5.888 6.684,5.068 7.242,4.167C7.345,4 7.444,3.832 7.543,3.663C7.997,2.892 8.426,2.163 9.212,1.675C9.298,1.623 9.387,1.577 9.479,1.536C9.433,1.349 9.551,1.19 9.72,1.124C10.11,0.972 10.554,1.09 10.959,1.033C11.042,1.022 11.125,1.008 11.209,0.995L10.432,0.468C9.581,-0.108 8.543,-0.372 7.585,-0.255L7.569,-0.253C4.46,0.234 2.231,1.154 0.548,2.648C-0.813,3.9 -1.652,5.456 -1.815,7.031C-1.867,7.47 -1.856,7.898 -1.791,8.31C-1.582,8.395 -1.369,8.472 -1.16,8.542C-0.786,8.665 -0.401,8.922 0,8.934" style="fill:rgb(166,124,83);fill-rule:nonzero;"/>
            </g>
            <g transform="matrix(1,0,0,1,237.138,66.32)">
                <path d="M0,-5.023C-0.631,-3.753 -1.287,1.195 0.591,-0.211C4.948,-3.474 2.928,-4.085 1.56,-5.152C0.192,-6.218 0,-5.023 0,-5.023" style="fill:rgb(238,123,170);fill-rule:nonzero;"/>
            </g>
            <g transform="matrix(1,0,0,1,267.99,62.0535)">
                <path d="M0,-4.56C0.817,-3.393 1.87,1.099 -0.479,-0.138C-4.959,-2.497 -3.466,-3.698 -1.877,-4.678C-0.287,-5.659 0,-4.56 0,-4.56" style="fill:rgb(238,123,170);fill-rule:nonzero;"/>
            </g>
            <g transform="matrix(1,0,0,1,237.728,95.2023)">
                <path d="M0,-27.234C0.24,-10.212 11.529,-5.56 23.23,-7.792C35.912,-10.212 35.912,-22.807 35.912,-22.807C35.912,-22.807 39.928,-7.491 20.125,-3.529C2.492,0 -2.441,-15.47 -2.969,-20.026C-3.496,-24.582 0,-27.234 0,-27.234" style="fill:rgb(238,123,170);fill-rule:nonzero;"/>
            </g>
            <g transform="matrix(0.809003,-0.587804,-0.587804,-0.809003,264.695,72.1124)">
                <path d="M0.269,0.112C1.671,0.093 2.871,-0.358 4.158,-1.153C3.917,0.672 2.056,1.903 0.269,1.894C-1.519,1.898 -3.376,0.668 -3.62,-1.156C-2.336,-0.357 -1.133,0.095 0.269,0.112" style="fill:rgb(65,36,19);fill-rule:nonzero;"/>
            </g>
            <g transform="matrix(1,0,0,1,249.103,73.722)">
                <path d="M0,0.333C1.415,0.746 2.773,1.557 3.881,2.589C4.189,2.86 4.459,3.156 4.76,3.443C4.917,-0.318 0.327,-3.11 -3.056,-1.599C-4.168,-1.119 -5.14,-0.027 -5.156,1.199C-3.546,-0.195 -1.838,-0.166 0,0.333" style="fill:rgb(65,36,19);fill-rule:nonzero;"/>
            </g>
            <g transform="matrix(0.399662,0.916663,0.916663,-0.399662,263.227,73.0591)">
                <path d="M4.745,-2.802C3.441,-0.552 2.981,2.159 3.671,4.674C3.901,5.501 4.261,6.296 4.745,7.042C4.084,6.443 3.585,5.657 3.265,4.808C2.31,2.277 2.861,-0.842 4.745,-2.802" style="fill:rgb(65,36,19);fill-rule:nonzero;"/>
            </g>
            <g transform="matrix(1,0,0,1,263.279,77.4985)">
                <path d="M0,2.173C2.184,1.141 4.725,0.759 7.021,1.645C5.133,0 1.701,0.441 0,2.173" style="fill:rgb(65,36,19);fill-rule:nonzero;"/>
            </g>
            <g transform="matrix(0.0331038,-0.999452,-0.999452,-0.0331038,250.769,73.7252)">
                <path d="M-6.673,-4.527C-4.505,-2.275 -4.493,1.279 -5.399,4.104C-5.706,5.066 -6.123,5.993 -6.673,6.832C-6.328,5.892 -6.034,4.948 -5.811,3.991C-5.151,1.159 -5.083,-1.974 -6.673,-4.527" style="fill:rgb(65,36,19);fill-rule:nonzero;"/>
            </g>
            <g transform="matrix(-0.818421,-0.57462,-0.57462,0.818421,253.607,84.0494)">
                <path d="M4.324,1.339C4.538,2.014 4.609,2.755 4.437,3.432C4.41,3.172 4.38,2.925 4.324,2.672C3.735,0.266 1.911,-1.542 -0.006,-3.009C1.97,-2.294 3.67,-0.681 4.324,1.339" style="fill:rgb(65,36,19);fill-rule:nonzero;"/>
            </g>
            <g transform="matrix(1,0,0,1,235.366,87.5657)">
                <path d="M0,-26.017C0.285,-26.683 0.801,-27.558 1.644,-27.944C2.347,-28.266 3.303,-28.247 4.486,-27.887C5.582,-27.553 6.636,-27.034 7.583,-26.371C6.635,-25.613 5.829,-24.757 5.222,-23.813C7.032,-24.719 8.834,-25.783 10.662,-26.634C13.394,-27.882 16.334,-28.649 19.331,-28.847C21.331,-29.013 23.298,-28.672 25.176,-27.972C26.121,-27.625 27.048,-27.208 27.96,-26.686C27.315,-27.534 26.441,-28.187 25.519,-28.712C25.503,-28.722 25.486,-28.73 25.469,-28.739C26.669,-30.199 28.322,-31.297 30.109,-31.801C30.943,-32.036 32.118,-32.208 32.979,-31.691C33.737,-31.237 34.244,-30.279 34.529,-28.765C34.841,-27.102 34.871,-25.368 34.623,-23.681C33.965,-24.174 33.234,-24.567 32.421,-24.818C33.773,-22.53 35.612,-20.713 36.688,-18.288C36.994,-17.602 37.278,-16.823 37.465,-16.093C39.966,-6.323 31.613,1.669 22.362,2.801C17.711,3.431 12.804,2.571 8.764,0.145C4.762,-2.201 1.636,-6.235 1.035,-10.901C0.953,-11.659 0.891,-12.454 0.934,-13.214C1.002,-14.784 1.364,-16.282 1.706,-17.824C1.873,-18.554 2.128,-19.519 2.263,-20.258C1.57,-19.721 1.019,-19.04 0.565,-18.297C0.499,-18.189 0.438,-18.078 0.377,-17.967C0.027,-18.897 -0.231,-19.79 -0.423,-20.856C-0.77,-22.774 -0.623,-24.559 0,-26.017M-0.538,-15.537C-0.908,-13.958 -0.936,-12.285 -0.783,-10.682C-0.488,-8.065 0.495,-5.543 1.999,-3.385C9.977,7.973 28.883,7.969 36.854,-3.393C39.922,-7.795 40.609,-13.449 38.466,-18.396C37.878,-19.726 37.126,-21.075 36.163,-22.213C36.662,-24.465 36.704,-26.837 36.28,-29.094C35.896,-31.138 35.116,-32.488 33.896,-33.22C32.783,-33.887 31.306,-33.99 29.626,-33.516C27.336,-32.87 25.232,-31.411 23.786,-29.479C19.412,-30.959 13.382,-30.024 9.128,-27.446C7.9,-28.403 6.484,-29.142 5.005,-29.592C3.393,-30.082 2.012,-30.073 0.901,-29.564C-0.458,-28.941 -1.23,-27.672 -1.638,-26.718C-2.399,-24.938 -2.585,-22.802 -2.177,-20.539C-1.842,-18.687 -1.319,-17.278 -0.538,-15.537" style="fill:rgb(65,36,19);fill-rule:nonzero;"/>
            </g>
            <g transform="matrix(1,0,0,1,236.666,59.6236)">
                <path d="M0,7.001C0.087,5.756 0.14,4.576 0.333,3.363C0.481,2.711 0.441,1.5 1.316,1.468C1.607,1.45 1.916,1.525 2.213,1.579C2.095,1.469 1.968,1.37 1.83,1.281C-0.386,0 -0.703,3.76 -0.517,5.161C-0.443,5.797 -0.284,6.424 0,7.001" style="fill:rgb(65,36,19);fill-rule:nonzero;"/>
            </g>
            <g transform="matrix(1,0,0,1,268.272,59.6347)">
                <path d="M0,-0.868C0.28,0.191 0.481,1.235 0.734,2.314C0.869,1.685 0.895,1.041 0.859,0.402C0.812,-0.255 0.726,-0.868 0.526,-1.51C0.415,-1.832 0.245,-2.181 -0.065,-2.438C-0.97,-3.182 -2.197,-2.593 -2.88,-1.854C-1.49,-2.379 -0.378,-2.664 0,-0.868" style="fill:rgb(65,36,19);fill-rule:nonzero;"/>
            </g>
            <g transform="matrix(1,0,0,1,227.941,88.9606)">
                <path d="M0,6.041C-1.488,3.977 -1.307,1.033 0.208,-0.926C0.276,-0.689 0.372,-0.461 0.493,-0.252C1.458,1.405 3.416,1.768 5.022,2.336C7.346,3.12 8.781,5.434 8.698,7.866C7.941,8.648 6.81,9.061 5.694,9.064C3.47,9.09 1.251,7.876 0,6.041M4.267,-1.853C6.589,-1.033 8.184,0.894 9.023,3.168C9.134,3.465 9.238,3.773 9.325,4.086C8.774,2.848 7.826,1.779 6.608,1.162C5.451,0.525 4.012,0.373 2.844,-0.081C2.015,-0.392 1.263,-0.988 1.079,-1.815C1.997,-2.476 3.267,-2.207 4.267,-1.853M10.47,7.975C11.49,6.371 11.182,4.268 10.588,2.604C9.873,0.519 8.572,-1.444 6.68,-2.633C4.736,-3.845 1.934,-4.686 -0.04,-3.099C-1.438,-1.882 -2.25,-0.131 -2.394,1.694C-2.788,5.773 0.451,9.506 4.367,10.238C6.603,10.727 9.203,10.028 10.47,7.975" style="fill:rgb(65,36,19);fill-rule:nonzero;"/>
            </g>
            <g transform="matrix(1,0,0,1,250.038,94.4358)">
                <path d="M0,10.711C-1.693,10.334 -3.153,9.191 -4.074,7.739C-4.443,7.165 -4.743,6.511 -4.893,5.843C-3.531,4.524 -1.506,4.103 0.185,4.906C2.233,5.86 4.043,7.806 6.52,7.754C7.735,7.751 8.961,7.307 9.89,6.526C9.826,6.964 9.692,7.391 9.472,7.79C8.651,9.293 6.9,10.025 5.267,10.424C3.562,10.834 1.72,11.101 0,10.711M-4.44,3.167C-3.488,1.828 -1.795,1.063 -0.196,0.734C2.371,0.2 5.023,0.804 7.439,1.72C8.078,1.956 8.662,2.522 9.093,3.207C9.477,3.784 9.748,4.452 9.868,5.14C8.678,6.065 7.094,6.461 5.642,6.025C3.914,5.494 2.483,4.124 0.744,3.507C-1.221,2.715 -3.61,3.305 -4.995,4.869C-4.981,4.273 -4.815,3.691 -4.44,3.167M11.201,5.39C11.114,3.387 9.928,1.103 8.014,0.275C5.349,-0.841 2.341,-1.347 -0.508,-0.663C-2.873,-0.073 -5.478,1.398 -6.024,3.989C-6.506,6.905 -4.112,9.928 -1.569,11.061C0.654,12.058 3.165,11.741 5.461,11.254C8.586,10.612 11.274,8.917 11.201,5.39" style="fill:rgb(65,36,19);fill-rule:nonzero;"/>
            </g>
            <g transform="matrix(1,0,0,1,268.329,90.3644)">
                <path d="M0,8.068C0.99,8.582 2.189,8.724 3.271,8.428C5.425,7.843 7.231,6.062 8.473,4.286C8.879,3.701 9.232,3.014 9.538,2.392C9.993,1.415 10.788,0.233 12,0.459C12.97,1.877 13.062,3.823 12.352,5.437C11.337,7.746 8.958,9.204 6.521,9.617C4.919,9.876 3.096,9.911 1.581,9.347C0.855,9.087 0.334,8.634 0,8.068M-0.423,5.751C-0.259,4.168 0.631,2.734 1.788,1.669C3.661,0.007 6.075,-0.722 8.559,-1.111C9.41,-1.215 10.343,-0.965 11.078,-0.467C10.654,-0.429 10.233,-0.282 9.879,-0.068C8.806,0.599 8.344,1.621 7.749,2.582C7.228,3.424 6.635,4.221 5.96,4.946C4.221,6.847 2.056,8.252 -0.378,7.061C-0.461,6.646 -0.476,6.204 -0.423,5.751M6.703,10.58C9.439,10.075 12.047,8.425 13.29,5.871C14.35,3.699 14.213,0.84 12.553,-1.015C11.484,-2.158 9.939,-2.768 8.363,-2.635C5.598,-2.347 2.741,-1.474 0.702,0.518C-0.682,1.86 -1.687,3.688 -1.794,5.642C-1.952,7.76 -0.928,9.749 1.186,10.424C2.112,10.744 3.058,10.823 3.97,10.828C4.883,10.836 5.801,10.761 6.703,10.58" style="fill:rgb(65,36,19);fill-rule:nonzero;"/>
            </g>
            <g transform="matrix(1,0,0,1,220.663,66.266)">
                <path d="M0,24.234C-1.659,21.391 -3.209,18.484 -4.644,15.522L6.863,7.903C8.039,7.124 8.545,5.654 8.098,4.316C7,1.033 5.7,-3.119 4.736,-6.248C4.071,-8.405 1.405,-9.161 -0.294,-7.675L-14.969,5.153L-15.085,-5.321C-15.107,-7.35 -17.032,-8.817 -18.994,-8.301C-22.165,-7.466 -26.693,-6.298 -30.237,-5.477C-31.774,-5.12 -32.805,-3.673 -32.633,-2.104C-31.444,8.796 -30.114,19.68 -28.645,30.546C-28.421,32.206 -26.92,33.395 -25.252,33.229C-23.33,33.037 -21.417,32.752 -19.522,32.375C-17.976,32.068 -16.899,30.658 -17.016,29.086L-17.728,19.463C-16.621,21.987 -14.625,26.379 -13.389,29.088C-12.765,30.456 -11.254,31.184 -9.795,30.818C-7.715,30.295 -4.666,29.527 -1.918,28.825C0.089,28.313 1.044,26.023 0,24.234" style="fill:rgb(65,36,19);fill-rule:nonzero;"/>
            </g>
            <g transform="matrix(1,0,0,1,328.539,98.4218)">
                <path d="M0,-22C-1.656,-21.971 -3.787,-21.933 -5.715,-21.899C-7.298,-21.871 -8.562,-20.572 -8.548,-18.988L-8.408,-2.992C-8.395,-1.49 -7.232,-0.25 -5.735,-0.138C-3.532,0.028 -1.316,0.014 0.885,-0.179C2.433,-0.315 3.591,-1.66 3.508,-3.212C3.222,-8.532 3.029,-15.385 2.936,-19.186C2.897,-20.772 1.586,-22.028 0,-22" style="fill:rgb(65,36,19);fill-rule:nonzero;"/>
            </g>
            <g transform="matrix(1,0,0,1,320.265,59.5588)">
                <path d="M0,10.926C0.978,11.643 2.154,12.048 3.344,12.284C6.169,12.844 9.304,12.422 11.534,10.601C13.765,8.78 14.79,5.4 13.434,2.859C12.816,1.701 11.741,0.877 10.662,0.129C7.707,-1.918 2.975,-1.462 1.063,-0.321C-0.85,0.819 -2.241,2.844 -2.492,5.057C-2.742,7.269 -1.795,9.609 0,10.926" style="fill:rgb(65,36,19);fill-rule:nonzero;"/>
            </g>
            <g transform="matrix(1,0,0,1,207.596,124.195)">
                <path d="M0,-12.875C-0.298,-13.503 -1.172,-13.525 -1.86,-13.43C-5.627,-12.913 -12.229,-9.544 -12.229,-9.544C-12.229,-9.544 -13.08,-15.474 -13.586,-16.518C-13.913,-17.193 -14.326,-17.943 -15.189,-17.922C-15.502,-17.914 -15.804,-17.791 -16.049,-17.596C-16.702,-17.078 -16.915,-16.275 -17.05,-15.497C-17.512,-12.844 -17.262,-10.118 -16.921,-7.452C-16.491,-4.09 -15.863,-0.756 -15.036,2.531C-14.869,3.194 -14.679,3.865 -14.289,4.424C-14.218,4.526 -14.067,4.602 -13.868,4.658C-12.395,5.068 -10.984,3.818 -11.152,2.298C-11.334,0.645 -11.592,-1.511 -11.849,-3.034C-10.72,-1.907 -9.591,-0.78 -8.461,0.347C-6.683,2.121 -3.722,5.055 -2.197,2.908C-0.672,0.76 -3.098,-0.634 -4.572,-2.059L-9.428,-6.754L-1.388,-10.054C-0.376,-10.469 0.247,-11.521 0.074,-12.601C0.057,-12.713 0.032,-12.807 0,-12.875" style="fill:rgb(65,36,19);fill-rule:nonzero;"/>
            </g>
            <g transform="matrix(1,0,0,1,227.737,112.392)">
                <path d="M0,9.021C-0.58,10.794 -2.052,12.241 -3.823,12.827C-6.388,13.675 -9.462,12.585 -10.92,10.31C-12.377,8.035 -12.188,4.331 -10.344,2.356C-9.469,1.417 -3.814,-0.56 -0.914,3.725C0.132,5.27 0.58,7.248 0,9.021M-15.026,2.025C-15.657,3.443 -17.767,11.125 -11.295,15.417C-7.604,17.865 -3.487,16.682 -1.602,16.001C1.518,14.875 3.82,11.851 4.248,8.562C5.573,-1.617 -10.189,-8.844 -15.026,2.025" style="fill:rgb(65,36,19);fill-rule:nonzero;"/>
            </g>
            <g transform="matrix(1,0,0,1,247.09,115.857)">
                <path d="M0,3.15C-0.566,4.23 -1.685,4.944 -2.843,5.413C-4.369,6.031 -6.045,6.306 -7.698,6.207C-8.021,2.744 -8.253,-0.728 -8.392,-4.203C-7.437,-4.585 -4.667,-4.865 -3.158,-4.451C-1.649,-4.038 -0.266,-3 0.231,-1.566C0.455,-0.922 0.494,-0.232 0.497,0.448C0.5,1.371 0.432,2.326 0,3.15M-12.371,-6.728C-12.469,-6.694 -11.717,6.001 -11.335,12.196C-11.314,12.536 -11.285,12.899 -11.078,13.17C-10.659,13.72 -9.81,13.585 -9.145,13.396C-8.734,13.279 -8.323,13.162 -7.912,13.045C-7.743,12.996 -7.56,12.938 -7.462,12.792C-7.378,12.666 -7.377,12.504 -7.38,12.353C-7.394,11.474 -7.409,10.596 -7.423,9.718C1.635,9.074 4.821,3.396 3.723,-1.121C2.625,-5.638 -1.154,-10.57 -12.371,-6.728" style="fill:rgb(65,36,19);fill-rule:nonzero;"/>
            </g>
            <g transform="matrix(1,0,0,1,260.995,127.766)">
                <path d="M0,-9.067C-0.025,-9.433 -0.471,-9.705 -0.948,-9.643C-1.61,-9.558 -2.507,-9.423 -3.179,-9.244C-3.483,-9.163 -3.693,-8.954 -3.708,-8.71C-3.863,-6.272 -3.907,-3.829 -3.841,-1.387C-3.83,-0.959 -3.773,-0.531 -3.64,-0.114C-3.546,0.182 -3.362,0.492 -2.987,0.591C-2.807,0.638 -2.613,0.627 -2.425,0.613C-1.363,0.535 -0.162,0.316 0.309,-0.401C0.581,-0.816 0.539,-1.307 0.504,-1.773C0.42,-2.892 0.117,-7.35 0,-9.067" style="fill:rgb(65,36,19);fill-rule:nonzero;"/>
            </g>
            <g transform="matrix(1,0,0,1,285.535,128.731)">
                <path d="M0,-20.343C-3.865,-18.176 -7.594,-14.555 -10.991,-11.71C-10.746,-14.08 -10.689,-16.47 -10.82,-18.849C-10.839,-19.188 -10.864,-19.537 -11.015,-19.841C-11.364,-20.548 -14.019,-21.133 -14.479,-20.947C-14.938,-20.76 -15.607,-7.957 -14.911,-1.526C-14.841,-0.877 -14.726,-0.158 -14.211,0.243C-13.51,0.79 -12.412,0.403 -11.888,-0.315C-11.364,-1.033 -11.254,-1.962 -11.135,-2.843C-10.957,-4.165 -10.723,-5.479 -10.434,-6.782C-7.298,-4.768 -4.106,-2.728 -0.53,-1.675C0.276,-1.438 1.417,-1.419 1.664,-2.222C1.837,-2.783 1.409,-3.335 1.004,-3.759C-1.029,-5.886 -3.265,-7.819 -5.664,-9.523C-2.917,-11.801 0.156,-14.789 1.941,-17.879C2.277,-18.459 0.395,-20.565 0,-20.343" style="fill:rgb(65,36,19);fill-rule:nonzero;"/>
            </g>
            <g transform="matrix(1,0,0,1,301.077,113.071)">
                <path d="M0,12.226C-1.408,12.478 -2.938,12.278 -4.115,11.445C-5.496,10.467 -6.229,8.687 -6.198,6.964C-6.046,-1.506 1.148,-1.286 3.722,1.257C8.514,5.99 5.409,11.26 0,12.226M11.585,-3.451C10.621,-4.17 8.806,-3.802 8.173,-2.765C7.539,-1.728 7.514,0.649 7.514,0.649C7.514,0.649 6.719,-1.587 4.709,-2.691C1.148,-4.647 -3.463,-4.622 -6.532,-1.927C-9.602,0.768 -10.787,5.421 -9.65,9.402C-8.862,12.163 -6.943,14.667 -4.318,15.669C-1.164,16.873 2.41,15.775 5.307,14.017C6.512,13.286 7.693,12.398 8.359,11.133C8.221,12.29 8.305,13.475 8.606,14.598C8.669,14.833 8.744,15.07 8.89,15.262C9.11,15.552 9.473,15.703 9.831,15.721C10.643,15.761 11.385,15.166 11.774,14.432C12.162,13.699 12.264,12.845 12.34,12.014C12.723,7.812 12.622,3.582 12.52,-0.636C12.495,-1.665 12.396,-2.846 11.585,-3.451" style="fill:rgb(65,36,19);fill-rule:nonzero;"/>
            </g>
            <g transform="matrix(1,0,0,1,335.834,122.581)">
                <path d="M0,-10.747C-0.046,-11.035 -0.108,-11.349 -0.336,-11.53C-0.539,-11.692 -0.82,-11.703 -1.08,-11.705C-2.445,-11.718 -4.72,-11.659 -6.083,-11.619C-6.711,-11.601 -7.235,-12.092 -7.259,-12.719C-7.271,-13.046 -7.283,-13.38 -7.292,-13.625C-7.303,-13.914 -7.356,-14.201 -7.465,-14.469C-8.334,-16.607 -10.313,-15.781 -10.914,-14.485C-11.146,-13.986 -11.199,-13.06 -11.202,-12.338C-11.203,-11.756 -11.643,-11.269 -12.222,-11.208C-13.661,-11.055 -16.24,-10.771 -17.756,-10.545C-18.907,-10.373 -19.784,-9.366 -19.716,-8.204C-19.684,-7.642 -19.446,-7.196 -18.872,-6.966C-18.626,-6.868 -18.359,-6.837 -18.095,-6.852L-12.426,-7.168C-11.761,-7.205 -11.21,-6.661 -11.241,-5.996C-11.33,-4.026 -11.459,-0.17 -11.226,2.15C-11.105,3.364 -10.879,4.714 -9.901,5.442C-9.552,5.703 -9.108,5.86 -8.677,5.795C-8.096,5.706 -7.634,5.226 -7.406,4.684C-7.178,4.142 -7.142,3.542 -7.115,2.954C-6.993,0.325 -7.036,-4.302 -7.065,-6.39C-7.073,-6.992 -6.605,-7.493 -6.003,-7.526L-2.157,-7.741C-1.557,-7.774 -0.908,-7.827 -0.458,-8.224C0.213,-8.815 0.14,-9.864 0,-10.747" style="fill:rgb(65,36,19);fill-rule:nonzero;"/>
            </g>
            <g transform="matrix(-1,0,0,1,258.706,115.84)">
                <path d="M0,-8.091C2.234,-8.091 4.046,-6.28 4.046,-4.045C4.046,-1.811 2.234,0 0,0C-2.234,0 -4.046,-1.811 -4.046,-4.045C-4.046,-6.28 -2.234,-8.091 0,-8.091" style="fill:rgb(65,36,19);fill-rule:nonzero;"/>
            </g>
            <g transform="matrix(0.98586,-0.16757,-0.16757,-0.98586,259.719,80.2389)">
                <path d="M-0.159,-0.013C0.707,-0.013 1.408,0.41 1.408,0.932C1.408,1.455 0.707,1.878 -0.158,1.878C-1.024,1.878 -1.725,1.455 -1.725,0.933C-1.725,0.41 -1.024,-0.013 -0.159,-0.013" style="fill:rgb(65,36,19);fill-rule:nonzero;"/>
            </g>
            <g transform="matrix(1,0,0,1,298.419,78.9821)">
                <path d="M0,-2.88C-4.092,-2.444 -4.976,-11.695 -0.537,-12.356C1.978,-12.73 5.181,-11.129 5.39,-8.288C5.686,-4.271 3.019,-3.202 0,-2.88M14.422,-9.521C13.716,-14.498 9.636,-18.525 4.948,-20.339C0.26,-22.154 -4.946,-22.082 -9.934,-21.456C-10.884,-21.337 -12.269,-21.106 -13.487,-20.891C-14.969,-20.63 -16,-19.27 -15.856,-17.772L-12.556,16.423C-12.417,17.868 -11.227,18.985 -9.776,19.031C-7.965,19.088 -5.467,19.166 -3.253,19.228C-1.591,19.274 -0.235,17.911 -0.289,16.249L-0.587,7.067C16.877,5.454 14.791,-6.917 14.422,-9.521" style="fill:rgb(65,36,19);fill-rule:nonzero;"/>
            </g>
        </g>
    </g>
</svg>
